<mxfile host="app.diagrams.net" agent="Mozilla/5.0 (Macintosh; Intel Mac OS X 10_15_7) AppleWebKit/537.36 (KHTML, like Gecko) Chrome/132.0.0.0 Safari/537.36" version="26.0.11">
  <diagram name="Page-1" id="YXQ8oYPnRuBLwHB3SY6W">
    <mxGraphModel dx="1140" dy="650" grid="1" gridSize="10" guides="1" tooltips="1" connect="1" arrows="1" fold="1" page="1" pageScale="1" pageWidth="850" pageHeight="1100" math="0" shadow="0">
      <root>
        <mxCell id="0" />
        <mxCell id="1" parent="0" />
        <UserObject label="&lt;b style=&quot;font-weight:normal;&quot; id=&quot;docs-internal-guid-9dd9b7c0-7fff-9799-83c8-a634557bc2b1&quot;&gt;&lt;span style=&quot;font-size:11pt;font-family:&#39;Times New Roman&#39;,serif;color:#000000;background-color:transparent;font-weight:400;font-style:normal;font-variant:normal;text-decoration:none;vertical-align:baseline;white-space:pre;white-space:pre-wrap;&quot;&gt;&lt;span style=&quot;border:none;display:inline-block;overflow:hidden;width:720px;height:346px;&quot;&gt;&lt;img src=&quot;https://lh7-rt.googleusercontent.com/docsz/AD_4nXf9kO5z_1b0rUa3deOFSds313gezW0yh9PA92f1vgnILEwCsPI789TU4mj9od6KyS8LWEKHaMwOSkfJUM1OCS7gxLvyU5WzaimhhjUGKiHnMr2Mbyp0Yjtu6GnuMHFpaAtH5m9_dSmg5qwqYdBRDpjr2JpU?key=NyUjor0ST_UVQ5HbIl1kdg&quot; width=&quot;720&quot; height=&quot;346&quot; style=&quot;margin-left:0px;margin-top:0px;&quot;&gt;&lt;/span&gt;&lt;/span&gt;&lt;/b&gt;" id="hR9polKtYgt_BTGzQakd-1">
          <mxCell style="text;whiteSpace=wrap;html=1;" vertex="1" parent="1">
            <mxGeometry x="20" y="80" width="560" height="370" as="geometry" />
          </mxCell>
        </UserObject>
        <mxCell id="hR9polKtYgt_BTGzQakd-6" value="Trigger Mechanism" style="text;html=1;align=center;verticalAlign=middle;whiteSpace=wrap;rounded=0;" vertex="1" parent="1">
          <mxGeometry x="395" y="310" width="60" height="30" as="geometry" />
        </mxCell>
        <mxCell id="hR9polKtYgt_BTGzQakd-7" value="Display Location" style="text;html=1;align=center;verticalAlign=middle;whiteSpace=wrap;rounded=0;" vertex="1" parent="1">
          <mxGeometry x="220" y="110" width="60" height="30" as="geometry" />
        </mxCell>
        <mxCell id="hR9polKtYgt_BTGzQakd-16" value="Nozzle&lt;br&gt;(Dip to fill)" style="text;html=1;align=center;verticalAlign=middle;whiteSpace=wrap;rounded=0;" vertex="1" parent="1">
          <mxGeometry x="660" y="160" width="60" height="30" as="geometry" />
        </mxCell>
        <mxCell id="hR9polKtYgt_BTGzQakd-18" value="Buttons to Navigate Screen" style="text;html=1;align=center;verticalAlign=middle;whiteSpace=wrap;rounded=0;" vertex="1" parent="1">
          <mxGeometry x="170" y="140" width="60" height="30" as="geometry" />
        </mxCell>
        <mxCell id="hR9polKtYgt_BTGzQakd-19" value="Detachable Battery Location" style="text;html=1;align=center;verticalAlign=middle;whiteSpace=wrap;rounded=0;" vertex="1" parent="1">
          <mxGeometry x="80" y="250" width="60" height="30" as="geometry" />
        </mxCell>
      </root>
    </mxGraphModel>
  </diagram>
</mxfile>
